<svg width="250" height="205" viewBox="0 0 250 205" fill="none" xmlns="http://www.w3.org/2000/svg">
<path d="M89.7877 95.8627C89.5215 93.879 88.2402 93.914 87.9877 94.5952C87.948 94.8984 87.9712 95.2065 88.056 95.5003C88.1407 95.7941 88.2851 96.0673 88.4802 96.3027C88.789 96.7727 89.8752 96.534 89.7877 95.8627Z" fill="#191919"/>
<path d="M93.4016 100.17C93.5511 100.137 93.684 100.052 93.7766 99.9302C94.4566 98.9702 95.0566 98.1564 94.2166 97.1027C93.3329 95.9593 92.3316 94.9119 91.2291 93.9777C91.1984 93.9517 91.162 93.9333 91.1229 93.9239C90.4075 92.1278 89.5558 90.389 88.5754 88.7227C88.5407 88.6616 88.4902 88.6111 88.4291 88.5764C88.5302 87.7052 88.5744 86.8284 88.5616 85.9514C88.5647 85.8494 88.5462 85.7478 88.5072 85.6534C88.4682 85.559 88.4096 85.474 88.3354 85.4039C88.3616 82.6039 86.1479 81.1364 83.8141 79.5639C82.2911 78.5598 80.5577 77.9191 78.7477 77.6913C76.9378 77.4635 75.0997 77.6547 73.3754 78.2502C66.4379 80.4264 63.3754 82.4277 60.4666 95.3877C57.7704 107.418 61.1491 118.786 57.1991 131.155C56.5129 133.303 55.6929 133.03 58.8241 135.983C67.5941 144.259 77.7154 142.723 87.7229 135.823C87.8681 135.734 87.9813 135.601 88.0461 135.444C88.1108 135.287 88.1237 135.113 88.0829 134.948C82.5379 121.125 86.2841 112.214 82.1066 105.078C82.0368 104.963 81.9389 104.869 81.8221 104.803C81.7053 104.738 81.5737 104.703 81.4397 104.703C81.3058 104.703 81.1742 104.738 81.0574 104.803C80.9406 104.869 80.8426 104.963 80.7729 105.078C79.4604 106.844 77.0654 105.478 76.5229 103.798C76.2248 102.869 76.1971 101.874 76.4429 100.93C76.9779 100.118 78.3179 100.44 78.9241 100.904C79.0745 100.987 79.2475 101.02 79.4178 100.997C79.5881 100.975 79.7467 100.898 79.8704 100.779C83.5229 97.6702 86.9291 95.7439 88.1654 90.1764C90.3979 96.1202 94.9079 105.478 92.1804 108.394C91.5586 108.938 90.8102 109.317 90.0038 109.496C89.1975 109.675 88.359 109.649 87.5654 109.42C87.1219 109.228 86.648 109.115 86.1654 109.086C86.0721 109.088 85.9809 109.114 85.9005 109.161C85.82 109.208 85.7531 109.275 85.7061 109.355C85.6591 109.436 85.6336 109.527 85.6322 109.62C85.6308 109.714 85.6534 109.806 85.6979 109.888C85.9478 110.192 86.2585 110.44 86.6101 110.616C86.9616 110.793 87.3462 110.895 87.7391 110.914C87.1791 112.434 87.0991 115.164 88.2854 116.395C88.3754 116.482 88.4912 116.536 88.6151 116.551C88.7391 116.565 88.8644 116.539 88.9718 116.475C89.0792 116.412 89.1629 116.315 89.2101 116.199C89.2572 116.084 89.2652 115.956 89.2329 115.835C88.9066 115.02 88.6738 114.17 88.5391 113.301C88.4854 112.528 88.5654 111.754 88.4729 110.98C88.5391 110.98 88.6054 110.993 88.6729 110.994C89.8467 111.025 91.0089 110.755 92.0479 110.208C95.3591 108.403 94.5191 103.775 93.4016 100.17ZM68.0366 83.6064C63.5979 90.6639 64.9854 97.2527 64.0891 100.81C64.0711 100.867 64.0356 100.916 63.9876 100.951C63.9396 100.987 63.8817 101.005 63.8222 101.005C63.7628 101.005 63.7049 100.987 63.6569 100.951C63.6089 100.916 63.5734 100.867 63.5554 100.81C63.1581 99.0917 63.0856 97.3141 63.3416 95.5689C63.6141 91.9652 64.1841 87.6802 66.1566 84.6739C66.5378 84.1173 67.0113 83.6298 67.5566 83.2327C67.8091 83.0314 68.2379 83.2877 68.0366 83.6064ZM83.8404 91.1952C83.3869 92.0488 82.7546 92.7945 81.9866 93.3814C81.9221 93.4167 81.8497 93.435 81.7761 93.4345C81.7026 93.4341 81.6304 93.415 81.5663 93.379C81.5022 93.343 81.4483 93.2913 81.4096 93.2288C81.371 93.1662 81.3489 93.0949 81.3454 93.0214C81.2416 91.4402 83.8841 89.0139 84.5604 85.6877C84.6864 84.7728 84.7441 83.8499 84.7329 82.9264C84.7364 82.8228 84.773 82.7231 84.8375 82.6419C84.9019 82.5607 84.9908 82.5024 85.0909 82.4755C85.191 82.4486 85.2971 82.4546 85.3935 82.4926C85.49 82.5306 85.5717 82.5985 85.6266 82.6864C87.2429 85.0239 85.4716 88.8852 83.8404 91.1952ZM93.0279 99.0102C92.7216 98.1352 92.0016 96.1427 91.9479 96.0227C93.1766 97.6977 93.9191 97.7952 93.0279 99.0102Z" fill="#191919"/>
<path d="M89.1742 119.148C90.7992 118.248 91.3667 117.197 93.8954 116.987C97.8149 116.833 101.73 117.379 105.458 118.6C114.819 121.225 128.173 125.875 134.717 133.004C135.158 133.483 135.514 133.113 135.104 132.629C133.02 130.175 131.329 129.215 128.755 127.129C125.707 124.892 122.404 123.025 118.914 121.568C115.419 120.113 111.833 118.889 108.178 117.902C104.479 116.667 100.648 115.874 96.7629 115.54C94.7784 115.298 92.7648 115.559 90.9079 116.3C89.1067 117.205 87.8167 118.845 85.6004 118.448C85.5145 118.427 85.4243 118.435 85.343 118.469C85.2617 118.504 85.1937 118.564 85.1489 118.64C85.1041 118.716 85.0849 118.804 85.0942 118.892C85.1035 118.98 85.1407 119.063 85.2004 119.128C86.3079 120.267 87.9567 119.822 89.1742 119.148Z" fill="#191919"/>
<path d="M159.389 84.4202C161.139 82.2415 163.732 74.249 164.683 67.4302C164.774 66.7765 165.092 65.889 164.497 65.4302C164.421 65.363 164.327 65.3206 164.227 65.3088C164.127 65.2969 164.025 65.3162 163.937 65.364C163.244 65.6615 163.325 66.5515 163.229 67.1915C161.693 77.4915 159.152 81.3915 158.775 84.0877C158.762 84.3752 159.133 84.739 159.389 84.4202Z" fill="#191919"/>
<path d="M164.603 75.5652C164.606 75.6346 164.63 75.7015 164.67 75.7581C164.71 75.8147 164.766 75.8587 164.83 75.8849C164.895 75.9111 164.965 75.9185 165.033 75.9061C165.102 75.8938 165.165 75.8623 165.216 75.8152C165.655 75.4527 166.139 75.119 166.55 75.7215C167.128 76.5677 166.818 79.5052 166.63 80.5627C165.98 84.2227 164.806 85.034 165.336 85.9902C165.372 86.0503 165.427 86.097 165.492 86.1234C165.557 86.1497 165.629 86.1543 165.696 86.1365C166.281 85.969 166.44 85.4152 166.644 84.8865C167.58 82.627 168.069 80.2073 168.084 77.7615C168.056 76.6277 167.999 75.1052 166.87 74.4677C166.023 73.9927 164.546 74.444 164.603 75.5652Z" fill="#191919"/>
<path d="M169.31 82.2865C169.192 83.1247 169.014 83.9535 168.778 84.7665C168.409 85.5671 168.174 86.4232 168.084 87.3002C168.097 87.5677 168.43 87.8352 168.684 87.6477C169.725 86.8764 170.019 85.2077 170.284 84.0227C170.594 82.6348 170.75 81.2172 170.752 79.7952C170.752 78.8352 170.924 77.3139 170.03 76.6477C169.876 76.5229 169.691 76.4426 169.494 76.4153C169.297 76.3881 169.097 76.4151 168.915 76.4932C168.732 76.5714 168.574 76.6979 168.459 76.859C168.343 77.0201 168.273 77.2099 168.257 77.4077C168.259 77.4778 168.281 77.5458 168.321 77.6034C168.361 77.6611 168.417 77.7058 168.482 77.7323C168.547 77.7587 168.619 77.7658 168.687 77.7526C168.756 77.7393 168.82 77.7064 168.87 77.6577C169.812 76.7502 169.485 81.074 169.31 82.2865Z" fill="#191919"/>
<path d="M172.404 78.9527C171.977 78.5139 171.12 78.3827 170.831 79.0327C170.753 79.2064 170.844 79.4839 171.082 79.4589C172.094 79.3564 171.736 81.4327 171.682 82.0602C171.133 88.4164 168.074 90.7014 165.388 94.8752C164.513 96.2377 163.4 97.5689 163.667 99.2502C162.642 98.6651 161.53 98.2505 160.373 98.0227C159.092 97.745 157.789 97.5843 156.479 97.5427C157.276 96.7452 154.41 91.3164 153.678 87.9177C153.445 87.1928 153.377 86.4251 153.478 85.6706C153.58 84.9161 153.849 84.1938 154.265 83.5564C155.214 82.4127 156.784 82.3152 157.813 81.3302C157.87 81.2687 157.908 81.1921 157.923 81.1093C157.938 81.0266 157.929 80.9414 157.896 80.8639C157.864 80.7864 157.81 80.7199 157.74 80.6725C157.671 80.625 157.589 80.5986 157.505 80.5964C156.738 80.6012 155.98 80.7634 155.278 81.073C154.577 81.3826 153.946 81.8331 153.425 82.3964C150.425 85.4927 153.148 91.1227 154.732 94.8389C155.028 95.7667 155.431 96.6571 155.932 97.4927C156.115 97.7352 156.27 97.4802 155.625 97.7739C155.568 97.6948 155.494 97.6291 155.408 97.5813C155.323 97.5335 155.228 97.5048 155.131 97.4971C155.033 97.4893 154.935 97.5028 154.843 97.5366C154.752 97.5704 154.668 97.6236 154.599 97.6927C150.099 102.193 146.404 107.464 142.569 112.523C133.094 125.023 132.002 126.566 130.634 128.94C130.602 129.001 130.592 129.07 130.607 129.137C130.621 129.204 130.659 129.264 130.713 129.305C130.768 129.347 130.835 129.368 130.903 129.364C130.972 129.361 131.037 129.333 131.087 129.286C136.92 123.2 148.593 105.661 155.599 98.6802C155.67 98.6134 155.725 98.5313 155.759 98.4402C157.335 98.8639 161.11 99.0564 163.466 100.8C163.594 100.891 163.733 100.963 163.88 101.014C162.574 107.055 161.255 113.056 159.413 118.964C156.677 127.803 153.063 136.345 148.624 144.464C147.36 146.811 145.625 148.872 143.529 150.519C138.366 154.25 131.206 152.999 125.365 152.019C101.132 147.98 109.187 148.82 103.642 147.659C103.002 147.525 102.789 147.961 103.391 148.219C105.104 148.954 106.338 149.409 107.993 150.085C109.171 150.584 110.401 150.951 111.66 151.179C111.167 153.193 110.983 155.314 110.606 157.34C109.416 163.829 107.781 170.228 105.712 176.491C101.053 175.252 96.2305 174.74 91.4153 174.971C85.2913 175.25 79.2083 176.116 73.2502 177.559C65.9665 164.184 64.3315 156.031 61.0215 146.886C60.8765 146.485 60.4728 146.526 60.5215 147.02C60.7353 148.742 61.0788 150.444 61.549 152.114C58.9315 153.616 56.493 155.41 54.2803 157.461C53.495 158.071 52.8304 158.822 52.3202 159.675C52.2879 159.735 52.2757 159.803 52.2854 159.87C52.2951 159.938 52.3262 160 52.3741 160.048C52.422 160.096 52.4841 160.127 52.5512 160.137C52.6183 160.147 52.6868 160.135 52.7465 160.103C53.9427 159.505 55.7277 157.211 61.8827 153.314C63.7552 159.835 66.1638 166.19 69.084 172.314C68.613 172.275 68.1394 172.285 67.6702 172.341C66.9379 172.333 66.2061 172.387 65.4827 172.501C65.4925 172.445 65.4904 172.388 65.4766 172.333C65.4628 172.278 65.4376 172.226 65.4027 172.181C63.379 169.741 52.4478 160.316 49.6928 158.218C47.9862 156.786 46.1201 155.556 44.1315 154.551C43.399 154.229 43.4828 154.411 44.1715 154.871C44.8603 155.331 45.4215 155.891 46.9452 156.978C47.8503 157.623 48.7715 158.634 49.6528 159.311C51.4102 160.663 52.4802 162.166 54.1527 163.619C61.234 169.791 62.4202 171.031 64.3278 172.328C62.8472 175.384 61.9817 178.701 61.7802 182.09C60.5302 181.253 53.7965 180.859 41.4165 176.355C35.5015 174.204 28.3865 171.411 24.9728 166.446C24.074 165.242 23.4287 163.868 23.0757 162.407C22.7227 160.946 22.6694 159.429 22.919 157.946C23.6002 154.773 25.7352 152.106 27.7203 149.625C40.509 133.638 54.5065 127.098 58.2603 124.7C58.659 124.45 58.409 123.719 57.9265 123.899C43.6577 129.239 24.964 147.815 21.9327 155.999C21.4108 157.476 21.189 159.043 21.2804 160.607C21.3719 162.171 21.7747 163.701 22.4652 165.108C25.2927 171.216 31.7602 174.193 37.669 176.55C43.4327 178.865 49.3785 180.699 55.4452 182.031C57.438 182.556 59.4814 182.865 61.5402 182.951C61.6177 182.953 61.6943 182.934 61.7622 182.897C61.8302 182.859 61.8873 182.805 61.9277 182.739C61.9708 182.771 62.0212 182.793 62.0744 182.802C62.1277 182.81 62.1823 182.806 62.2335 182.789C62.2847 182.772 62.3309 182.743 62.3683 182.704C62.4056 182.665 62.4329 182.617 62.4477 182.565C62.6202 181.961 62.7802 181.365 62.9277 180.765C63.6202 181.285 64.4277 181.663 65.1278 182.191C65.5452 182.506 66.5952 183.605 67.0615 182.751C67.4765 181.991 66.1565 181.308 65.6752 181.001C64.915 180.466 64.0592 180.081 63.154 179.868C63.5094 178.252 63.9546 176.658 64.4877 175.093C64.689 174.494 64.9815 173.893 65.1415 173.279C65.9842 173.479 66.8494 173.569 67.7152 173.546C68.329 173.569 69.1415 173.746 69.649 173.359C72.1065 178.413 72.0515 177.62 71.729 177.814C67.2027 180.898 64.229 187.704 62.2477 192.844C59.6857 199.305 57.8734 206.039 56.8465 212.914C56.1669 216.695 56.0083 220.551 56.3752 224.375C56.4702 225.055 57.459 224.829 57.509 224.229C57.7827 220.923 57.684 217.628 58.0827 214.32C59.3831 204.646 62.2432 195.247 66.5515 186.488C68.1218 183.601 70.0289 180.91 72.2327 178.473C72.2486 178.457 72.2621 178.439 72.2728 178.419C72.2864 178.434 72.2955 178.453 72.299 178.473C72.3532 178.567 72.4304 178.647 72.5234 178.704C72.6164 178.761 72.7222 178.794 72.8312 178.799C72.9401 178.804 73.0487 178.782 73.1468 178.734C73.2449 178.687 73.3295 178.615 73.3927 178.526C77.6427 178.381 90.2415 174.816 102.199 177.165C105.548 177.824 105.583 178.193 106.293 178.019C106.293 178.553 109.641 187.715 111.306 193.903C114.853 207.073 115.011 214.963 115.734 219.668C115.839 220.348 116.905 220.161 116.908 219.508C116.949 211.025 112.735 188.996 107.027 177.793C106.992 177.731 106.941 177.68 106.879 177.645C107.07 177.34 107.215 177.007 107.307 176.659C110.894 166.52 112.768 154.628 112.748 151.409L123.216 153.209C129.324 154.263 136.434 155.8 142.326 153.049C147.463 150.651 150.18 145.166 152.529 140.326C158.271 128.488 163.325 113.586 165.078 100.878C165.091 100.798 165.081 100.716 165.048 100.643C165.014 100.569 164.96 100.508 164.891 100.465C164.888 100.337 164.854 100.212 164.791 100.1C164.728 99.9881 164.639 99.8934 164.531 99.8239C164.597 99.7959 164.654 99.7519 164.697 99.6959C164.741 99.64 164.77 99.574 164.781 99.5039C165.39 95.7864 169.664 92.1027 171.275 88.6089C172.28 86.4745 172.855 84.1638 172.969 81.8077C172.898 80.9389 173.057 79.6252 172.404 78.9527Z" fill="#191919"/>
<path d="M53.5827 51.8014C50.169 51.1039 33.8327 47.5426 32.8402 47.3014C32.4852 47.2164 32.9652 48.2139 27.6215 34.2314C26.6845 31.4719 25.4418 28.8258 23.9165 26.3426C23.7801 26.1289 23.591 25.9539 23.3674 25.8345C23.1438 25.7151 22.8932 25.6552 22.6398 25.6608C22.3863 25.6663 22.1386 25.737 21.9204 25.866C21.7022 25.9951 21.5209 26.1782 21.394 26.3976C17.7685 32.7847 15.0846 39.662 13.4252 46.8164C13.3546 47.122 13.4043 47.443 13.5641 47.7129C13.7239 47.9828 13.9816 48.1808 14.2835 48.2657C14.5854 48.3506 14.9085 48.316 15.1856 48.169C15.4626 48.0221 15.6725 47.774 15.7715 47.4764C17.6618 41.5448 19.9873 35.7607 22.729 30.1714C24.699 34.0989 29.419 48.0464 30.4065 49.2064C31.394 50.3664 33.2715 50.3851 34.4365 50.6251C36.8202 51.1126 47.6515 53.5401 49.984 54.0426C45.4252 57.6276 44.869 57.7014 38.1327 63.0426C35.6977 64.9739 35.4252 65.9376 36.1027 69.0426C37.1247 74.7785 37.8456 80.5639 38.2627 86.3751C33.774 82.7636 29.4725 78.9253 25.3752 74.8751C25.1051 74.6147 24.7472 74.465 24.3721 74.4555C23.997 74.446 23.6319 74.5775 23.349 74.8239C17.7965 79.1539 12.079 83.3626 6.71272 87.8901C5.42397 88.9751 7.05647 91.1339 8.44147 90.1276C13.8165 86.2451 18.984 81.9801 24.2215 77.8489C28.8934 82.4065 33.8178 86.6978 38.9715 90.7026C39.1871 90.8918 39.4527 91.0146 39.7365 91.0565C40.0202 91.0984 40.31 91.0575 40.5711 90.9387C40.8321 90.8199 41.0534 90.6283 41.2082 90.3869C41.363 90.1454 41.4449 89.8645 41.444 89.5776C41.0128 82.1461 40.1459 74.7463 38.8477 67.4164C38.6815 66.5576 38.6115 66.5039 39.864 65.4989C46.469 60.1939 50.5815 57.6376 54.2652 54.3139C54.4521 54.1271 54.5863 53.8942 54.6543 53.6389C54.7223 53.3836 54.7216 53.1148 54.6523 52.8598C54.5831 52.6048 54.4477 52.3726 54.2598 52.1868C54.072 52.0009 53.8384 51.868 53.5827 51.8014Z" fill="#86FF44"/>
<path d="M243.29 87.8627C237.904 83.3177 232.126 79.0639 226.655 74.7914C226.372 74.5452 226.008 74.4137 225.633 74.423C225.258 74.4322 224.9 74.5815 224.63 74.8414C220.539 78.9018 216.237 82.7434 211.741 86.3502C212.142 81.1214 212.964 73.8939 213.772 69.7814C214.397 66.5839 214.676 65.4139 212.38 63.4602C208.065 59.7802 204.255 57.3677 200.029 54.0302C202.371 53.5302 216.869 50.3639 217.037 50.3339C219.066 49.9839 219.814 49.6364 220.751 46.7977C220.8 46.6489 226.017 32.6627 227.274 30.1589C230.005 35.7556 232.33 41.5418 234.23 47.4727C234.329 47.7693 234.538 48.0166 234.815 48.1633C235.091 48.3101 235.413 48.3451 235.714 48.2612C236.016 48.1773 236.273 47.9808 236.434 47.7124C236.595 47.444 236.646 47.1241 236.577 46.8189C234.918 39.6605 232.234 32.7794 228.606 26.3889C228.478 26.1702 228.297 25.9879 228.078 25.8598C227.859 25.7316 227.612 25.6618 227.358 25.657C227.105 25.6522 226.855 25.7127 226.632 25.8325C226.408 25.9524 226.22 26.1276 226.084 26.3414C224.59 28.767 223.374 31.3528 222.459 34.0502C222.459 34.0502 217.881 46.1477 217.466 47.0589C217.369 47.2702 217.229 47.3164 216.716 47.4052C216.716 47.4052 199.554 51.1614 196.397 51.8139C196.144 51.8783 195.913 52.0091 195.728 52.1928C195.542 52.3765 195.409 52.6065 195.342 52.8589C195.276 53.1113 195.278 53.3769 195.348 53.6283C195.418 53.8797 195.554 54.1078 195.742 54.2889C200.257 58.1639 211.09 65.6702 211.214 66.6114C211.332 67.4352 209.316 75.3852 208.529 89.5277C208.524 89.8161 208.603 90.0998 208.757 90.3439C208.911 90.588 209.132 90.7821 209.395 90.9024C209.657 91.0226 209.948 91.0639 210.234 91.0211C210.519 90.9783 210.786 90.8533 211.001 90.6614C216.158 86.6612 221.083 82.3705 225.751 77.8102C230.94 81.9002 236.135 86.1752 241.536 90.0927C241.835 90.2742 242.189 90.3401 242.533 90.278C242.877 90.2158 243.186 90.0299 243.402 89.7553C243.618 89.4807 243.726 89.1365 243.705 88.7877C243.684 88.439 243.537 88.1099 243.29 87.8627Z" fill="#191919"/>
<path d="M189.742 52.2502C182.262 50.4164 174.312 50.7164 167.11 47.7952C167.11 47.6614 161.495 30.5289 159.975 26.0977C159.961 26.0515 159.934 26.0104 159.897 25.9795C159.859 25.9486 159.814 25.9291 159.766 25.9234C159.718 25.9177 159.669 25.926 159.626 25.9474C159.583 25.9688 159.546 26.0024 159.522 26.0439C149.129 48.5527 150.824 47.0739 150.16 47.7027C149.857 47.8969 149.516 48.0247 149.16 48.0777C142.151 50.2014 134.985 51.7667 127.729 52.7589C127.688 52.7713 127.651 52.794 127.621 52.8249C127.591 52.8559 127.57 52.894 127.559 52.9356C127.548 52.9771 127.548 53.0208 127.559 53.0623C127.57 53.1039 127.592 53.1419 127.622 53.1727C133.002 58.3502 138.786 63.091 144.919 67.3502C143.532 74.1652 142.329 81.0277 141.169 87.8877C141.157 87.9399 141.162 87.9946 141.183 88.0438C141.204 88.093 141.241 88.1341 141.287 88.161C141.333 88.1878 141.387 88.1991 141.441 88.1931C141.494 88.1871 141.544 88.1642 141.583 88.1277C146.867 82.7827 154.252 79.9927 159.093 74.1777L160.093 75.3377C161.632 66.7589 161.968 64.3564 163.494 63.6427C165.202 62.8427 165.935 64.8289 166.014 66.1502C166.129 68.4132 165.954 70.6815 165.494 72.9002C165.817 72.7247 166.18 72.6339 166.548 72.6363C166.915 72.6387 167.277 72.7342 167.597 72.9139C167.918 73.0936 168.188 73.3517 168.383 73.6641C168.577 73.9764 168.689 74.3329 168.708 74.7002C168.923 74.5966 169.157 74.5374 169.395 74.526C169.633 74.5146 169.872 74.5513 170.095 74.6339C170.506 74.8449 170.856 75.1582 171.111 75.5435C171.365 75.9288 171.516 76.3733 171.549 76.8339C171.846 76.6908 172.181 76.6512 172.503 76.7215C172.824 76.7917 173.113 76.9678 173.323 77.2214C174.207 78.2439 174.019 80.1552 174.029 81.4089C174.044 83.6554 173.807 85.8965 173.323 88.0902L173.643 88.4102C173.678 88.4405 173.721 88.4604 173.767 88.4676C173.813 88.4748 173.86 88.4691 173.903 88.451C173.946 88.433 173.983 88.4033 174.01 88.3654C174.037 88.3275 174.052 88.2828 174.055 88.2364C174.754 82.8614 175.43 77.4864 175.709 72.0739C175.975 66.7852 175.573 66.7627 176.323 66.0852C181.046 61.839 185.552 57.357 189.823 52.6564C189.857 52.6299 189.882 52.5945 189.897 52.5543C189.912 52.514 189.915 52.4705 189.907 52.4284C189.898 52.3864 189.878 52.3475 189.849 52.316C189.82 52.2846 189.783 52.2618 189.742 52.2502Z" fill="#86FF44"/>
<path d="M120.94 49.6402C113.394 48.099 105.43 49.079 98.0565 46.599C98.0565 46.474 94.5215 37.9377 89.574 25.3952C89.5589 25.3433 89.5273 25.2977 89.484 25.2652C89.4407 25.2328 89.3881 25.2152 89.334 25.2152C89.2799 25.2152 89.2273 25.2328 89.184 25.2652C89.1407 25.2977 89.1092 25.3433 89.094 25.3952C81.3303 44.7865 81.8065 47.1765 80.9053 47.6927C80.4553 47.9515 74.4053 50.0877 69.0228 51.6002C65.7428 52.5215 62.4115 53.2565 59.074 53.9752C59.033 53.9877 58.9958 54.0105 58.9661 54.0415C58.9365 54.0725 58.9153 54.1107 58.9046 54.1522C58.8939 54.1938 58.8941 54.2374 58.9052 54.2789C58.9162 54.3203 58.9378 54.3582 58.9678 54.389C64.7076 59.1665 70.7772 63.5331 77.1315 67.4565C76.7715 70.0573 76.4294 72.6577 76.1053 75.2577C79.7415 74.5902 84.3253 75.559 86.974 78.299C88.7362 76.8456 90.3205 75.1891 91.694 73.364C96.3753 78.3127 102.069 82.114 107.124 86.634C107.159 86.6646 107.202 86.6848 107.249 86.6923C107.295 86.6997 107.342 86.694 107.385 86.6759C107.428 86.6578 107.465 86.628 107.492 86.5899C107.519 86.5518 107.535 86.5068 107.538 86.4602C107.88 81.059 108.238 75.6452 108.178 70.2177C108.119 64.8915 107.708 64.9077 108.405 64.2027C112.103 60.4615 116.577 55.4777 121.03 49.9527C121.059 49.932 121.081 49.9028 121.093 49.8691C121.105 49.8354 121.106 49.7989 121.096 49.7647C121.086 49.7304 121.066 49.7 121.038 49.6777C121.01 49.6555 120.976 49.6423 120.94 49.6402Z" fill="#86FF44"/>
</svg>
